<svg xmlns="http://www.w3.org/2000/svg" viewBox="0 0 256 256">
  <defs>
    <linearGradient id="g" x1="0" y1="0" x2="1" y2="1">
      <stop offset="0%" stop-color="#3b82f6"/>
      <stop offset="100%" stop-color="#2563eb"/>
    </linearGradient>
  </defs>
  <rect width="256" height="256" rx="56" fill="#0f172a"/>
  <rect x="24" y="24" width="208" height="208" rx="48" fill="none" stroke="url(#g)" stroke-width="6"/>
  <path d="M48 84c18 0 18 14 35 14s17-14 35-14 18 14 35 14 17-14 35-14" fill="none" stroke="#93c5fd" stroke-width="12" stroke-linecap="round"/>
  <path d="M48 128c18 0 18 14 35 14s17-14 35-14 18 14 35 14 17-14 35-14" fill="none" stroke="#60a5fa" stroke-width="12" stroke-linecap="round"/>
  <path d="M48 172c18 0 18 14 35 14s17-14 35-14 18 14 35 14 17-14 35-14" fill="none" stroke="#3b82f6" stroke-width="12" stroke-linecap="round"/>
  <circle cx="128" cy="128" r="12" fill="#fff"/>
</svg>
